# File created by Blade
# Date/Time:  Wed Jan 21 19:19:27 2015
#---------------------------------------------------------
:version 1.10
:name HOM
:units
  mass 1.0
  length 1.000000
  angle deg
:documentation
     Acclaim Skeleton File
:root
   axis xyz
   order TX TY TZ RX RY RZ
   position 0.000000 0.000000 0.000000
   orientation 0 0 0
:bonedata
   begin
      id 1
      name RightUpLeg_dum
      direction -1.000000 0.000000 0.000000
      length 3.693983
      axis 0.0 0.0 0.0 xyz
   end
   begin
      id 2
      name LeftUpLeg_dum
      direction 1.000000 0.000000 0.000000
      length 3.693983
      axis 0.0 0.0 0.0 xyz
   end
   begin
      id 3
      name Spine_dum
      direction 0.000000 1.000000 0.000000
      length 2.392956
      axis 0.0 0.0 0.0 xyz
   end
   begin
      id 4
      name RightUpLeg
      direction 0.000000 -1.000000 0.000000
      length 15.795667
      axis 0.0 0.0 0.0 xyz
      dof rx ry rz
   end
   begin
      id 5
      name RightLeg
      direction 0.000000 -1.000000 0.000000
      length 14.766989
      axis 0.0 0.0 0.0 xyz
      dof rx ry rz
   end
   begin
      id 6
      name RightFoot
      direction 0.000000 -0.258819 0.965926
      length 4.962790
      axis 15.0 0.0 0.0 xyz
      dof rx ry rz
   end
   begin
      id 7
      name RightToeBase
      direction 0.000000 0.000000 1.000000
      length 2.952750
      axis 0.0 0.0 0.0 xyz
      dof rx ry rz
   end
   begin
      id 8
      name LeftUpLeg
      direction 0.000000 -1.000000 0.000000
      length 15.795667
      axis 0.0 0.0 0.0 xyz
      dof rx ry rz
   end
   begin
      id 9
      name LeftLeg
      direction 0.000000 -1.000000 0.000000
      length 14.766989
      axis 0.0 0.0 0.0 xyz
      dof rx ry rz
   end
   begin
      id 10
      name LeftFoot
      direction 0.000000 -0.258819 0.965926
      length 4.962790
      axis 15.0 0.0 0.0 xyz
      dof rx ry rz
   end
   begin
      id 11
      name LeftToeBase
      direction 0.000000 0.000000 1.000000
      length 2.952750
      axis 0.0 0.0 0.0 xyz
      dof rx ry rz
   end
   begin
      id 12
      name Spine
      direction 0.000000 1.000000 0.000000
      length 0.000000
      axis 0.0 0.0 0.0 xyz
      dof rx ry rz
   end
   begin
      id 13
      name Spine_dum1
      direction 0.000000 1.000000 0.000000
      length 13.207411
      axis 0.0 0.0 0.0 xyz
   end
   begin
      id 14
      name Spine_dum2
      direction 0.000000 1.000000 0.000000
      length 13.207411
      axis 0.0 0.0 0.0 xyz
   end
   begin
      id 15
      name Spine_dum3
      direction 0.000000 1.000000 0.000000
      length 19.250100
      axis 0.0 0.0 0.0 xyz
   end
   begin
      id 16
      name RightShoulder
      direction -1.000000 0.000000 0.000000
      length 8.140465
      axis 0.0 0.0 90.0 xyz
      dof rx ry rz
   end
   begin
      id 17
      name RightArm
      direction -1.000000 0.000000 0.000000
      length 10.649840
      axis 0.0 0.0 90.0 xyz
      dof rx ry rz
   end
   begin
      id 18
      name RightForeArm
      direction -1.000000 0.000000 0.000000
      length 8.304624
      axis 0.0 0.0 90.0 xyz
      dof ry rz rx
   end
   begin
      id 19
      name RightHand
      direction -1.000000 0.000000 0.000000
      length 0.000000
      axis 0.0 0.0 90.0 xyz
      dof rx ry rz
   end
   begin
      id 20
      name RightHand_dum1
      direction -1.000000 0.000000 0.000000
      length 3.937000
      axis 0.0 0.0 90.0 xyz
   end
   begin
      id 21
      name RightHand_dum2
      direction 0.000000 0.000000 0.000000
      length 0.000000
      axis 0.0 0.0 90.0 xyz
   end
   begin
      id 22
      name RightHandThumb1
      direction 0.000000 0.000000 1.000000
      length 3.937000
      axis 0.0 0.0 90.0 xyz
      dof rx rz ry
   end
   begin
      id 23
      name LeftShoulder
      direction 1.000000 0.000000 0.000000
      length 8.140465
      axis 0.0 0.0 -90.0 xyz
      dof rx ry rz
   end
   begin
      id 24
      name LeftArm
      direction 1.000000 0.000000 0.000000
      length 10.649840
      axis 0.0 0.0 -90.0 xyz
      dof rx ry rz
   end
   begin
      id 25
      name LeftForeArm
      direction 1.000000 0.000000 0.000000
      length 8.304624
      axis 0.0 0.0 -90.0 xyz
      dof ry rz rx
   end
   begin
      id 26
      name LeftHand
      direction 1.000000 0.000000 0.000000
      length 0.000000
      axis 0.0 0.0 -90.0 xyz
      dof rx ry rz
   end
   begin
      id 27
      name LeftHand_dum1
      direction 1.000000 0.000000 0.000000
      length 3.937000
      axis 0.0 0.0 -90.0 xyz
   end
   begin
      id 28
      name LeftHand_dum2
      direction 0.000000 0.000000 0.000000
      length 0.000000
      axis 0.0 0.0 -90.0 xyz
   end
   begin
      id 29
      name LeftHandThumb1
      direction 0.000000 0.000000 1.000000
      length 3.937000
      axis 0.0 0.0 -90.0 xyz
      dof rx rz ry
   end
   begin
      id 30
      name Head
      direction 0.000000 1.000000 0.000000
      length 4.527550
      axis 0.0 0.0 0.0 xyz
      dof rx ry rz
   end
:hierarchy
   begin
      root RightUpLeg_dum LeftUpLeg_dum Spine_dum
      RightUpLeg_dum RightUpLeg
      LeftUpLeg_dum LeftUpLeg
      Spine_dum Spine
      RightUpLeg RightLeg
      RightLeg RightFoot
      RightFoot RightToeBase
      LeftUpLeg LeftLeg
      LeftLeg LeftFoot
      LeftFoot LeftToeBase
      Spine Spine_dum1 Spine_dum2 Spine_dum3
      Spine_dum1 RightShoulder
      Spine_dum2 LeftShoulder
      Spine_dum3 Head
      RightShoulder RightArm
      RightArm RightForeArm
      RightForeArm RightHand
      RightHand RightHand_dum1 RightHand_dum2
      RightHand_dum2 RightHandThumb1
      LeftShoulder LeftArm
      LeftArm LeftForeArm
      LeftForeArm LeftHand
      LeftHand LeftHand_dum1 LeftHand_dum2
      LeftHand_dum2 LeftHandThumb1
   end

# File created by Blade
# Date/Time:  Wed Jan 21 19:19:18 2015
# Frame Rate: 120.000 fps
#------------------------------------------------------
:FULLY-SPECIFIED
:DEGREES
204
root -1.955196 21.591419 -4.668061 60.385841 -31.651774 17.443015
RightUpLeg -150.632331 -34.628690 21.567838
RightLeg 78.885028 -0.000000 -0.000000
RightFoot -6.294607 24.675735 24.979991
RightToeBase 19.066470 -0.000000 -0.000000
LeftUpLeg -50.910241 34.774173 1.841255
LeftLeg 9.109546 -0.000000 -0.000000
LeftFoot -10.135485 -4.855391 -29.409581
LeftToeBase -1.869313 -0.000000 0.000000
Spine -33.542734 14.807736 6.090198
RightShoulder -6.469715 20.876064 -25.751309
RightArm 6.081139 -23.493154 65.645480
RightForeArm 9.313092 -0.000000 5.088489
RightHand 16.627691 0.000000 -11.674230
RightHandThumb1 -24.326973 -0.000000 -32.862282
LeftShoulder -10.697077 4.619924 35.248867
LeftArm 19.600823 -19.089989 -57.153073
LeftForeArm 18.033534 0.000000 19.175412
LeftHand -22.747498 0.000000 11.895013
LeftHandThumb1 -26.253704 0.000000 33.147579
Head -6.449000 8.960613 -6.780186
205
root -1.917232 21.419800 -4.653750 60.106369 -31.832820 17.564671
RightUpLeg -151.272765 -34.746400 21.622013
RightLeg 79.583523 -0.000000 -0.000000
RightFoot -6.122402 24.932623 24.937416
RightToeBase 18.940681 -0.000000 -0.000000
LeftUpLeg -50.575141 35.147267 1.704660
LeftLeg 9.185339 -0.000000 -0.000000
LeftFoot -10.655545 -4.632921 -29.725928
LeftToeBase -1.103203 -0.000000 0.000000
Spine -33.367317 14.944750 6.139334
RightShoulder -6.448842 20.878866 -25.655796
RightArm 6.114080 -23.596825 65.441564
RightForeArm 9.091322 -0.000000 5.022085
RightHand 16.859038 0.000000 -11.634889
RightHandThumb1 -24.326973 -0.000000 -32.862282
LeftShoulder -10.789685 4.617247 35.311533
LeftArm 19.740122 -19.345075 -56.469547
LeftForeArm 17.990907 -0.000000 18.974536
LeftHand -22.686329 -0.000000 11.806813
LeftHandThumb1 -26.253704 0.000000 33.147579
Head -6.642413 8.989102 -6.883989
206
root -1.869018 21.252413 -4.638602 59.842029 -32.077971 17.750435
RightUpLeg -151.956665 -34.833781 21.696872
RightLeg 80.163710 -0.000000 -0.000000
RightFoot -5.961463 25.290867 24.904545
RightToeBase 18.975232 -0.000000 -0.000000
LeftUpLeg -50.345620 35.548011 1.357370
LeftLeg 9.238866 -0.000000 -0.000000
LeftFoot -11.119988 -4.360892 -29.808163
LeftToeBase -0.751087 -0.000000 0.000000
Spine -33.226708 15.071497 6.126696
RightShoulder -6.368252 20.990346 -25.622026
RightArm 5.990594 -23.838284 65.294012
RightForeArm 8.842545 -0.000000 4.978024
RightHand 17.039490 -0.000000 -11.599315
RightHandThumb1 -24.326973 -0.000000 -32.862282
LeftShoulder -10.866427 4.631172 35.370779
LeftArm 19.795297 -19.675384 -55.812326
LeftForeArm 17.979996 -0.000000 18.937135
LeftHand -22.720818 0.000000 11.569301
LeftHandThumb1 -26.253704 0.000000 33.147579
Head -6.855105 9.078552 -7.042013
207
root -1.825135 21.082267 -4.624266 59.570507 -32.262665 17.891256
RightUpLeg -152.570775 -34.973104 21.693440
RightLeg 80.789481 -0.000000 -0.000000
RightFoot -5.634298 25.524582 25.123919
RightToeBase 18.865281 -0.000000 -0.000000
LeftUpLeg -50.067196 35.963362 1.107253
LeftLeg 9.248960 -0.000000 -0.000000
LeftFoot -11.544800 -4.144660 -29.977988
LeftToeBase -0.998254 -0.000000 0.000000
Spine -33.045061 15.206463 6.179858
RightShoulder -6.347885 20.979201 -25.581066
RightArm 6.010216 -24.119457 65.085337
RightForeArm 8.856407 -0.000000 4.996749
RightHand 17.180598 0.000000 -11.828839
RightHandThumb1 -24.326973 -0.000000 -32.862282
LeftShoulder -10.977621 4.531334 35.487757
LeftArm 19.834827 -19.773044 -55.099079
LeftForeArm 17.880012 -0.000000 18.714529
LeftHand -22.638116 -0.000000 11.473527
LeftHandThumb1 -26.253704 0.000000 33.147579
Head -7.102439 9.121942 -7.170238
